# Blender v2.83.5 OBJ File: 'world5.blend'
# www.blender.org
mtllib world5_1.mtl
o Cube_Cube.001
v -14.127729 2.172887 3.317522
v -14.127729 20.814373 3.317522
v -14.127729 2.172887 -3.317522
v -14.127729 20.814373 -3.317522
v -7.310442 2.172887 3.317522
v -7.310442 20.814373 3.317522
v -7.310442 2.172887 -3.317522
v -7.310442 20.814373 -3.317522
vt 0.375000 0.000000
vt 0.625000 0.000000
vt 0.625000 0.250000
vt 0.375000 0.250000
vt 0.625000 0.500000
vt 0.375000 0.500000
vt 0.625000 0.750000
vt 0.375000 0.750000
vt 0.625000 1.000000
vt 0.375000 1.000000
vt 0.125000 0.500000
vt 0.125000 0.750000
vt 0.875000 0.500000
vt 0.875000 0.750000
vn -1.0000 0.0000 0.0000
vn 0.0000 0.0000 -1.0000
vn 1.0000 0.0000 0.0000
vn 0.0000 0.0000 1.0000
vn 0.0000 -1.0000 0.0000
vn 0.0000 1.0000 0.0000
usemtl None
s off
f 1/1/1 2/2/1 4/3/1 3/4/1
f 3/4/2 4/3/2 8/5/2 7/6/2
f 7/6/3 8/5/3 6/7/3 5/8/3
f 5/8/4 6/7/4 2/9/4 1/10/4
f 3/11/5 7/6/5 5/8/5 1/12/5
f 8/5/6 4/13/6 2/14/6 6/7/6
o Cube.001_Cube.002
v -7.044659 1.034365 16.469711
v -7.044659 11.637897 16.469711
v -7.044659 1.034365 13.444469
v -7.044659 11.637897 13.444469
v 10.645702 1.034365 16.469711
v 10.645702 11.637897 16.469711
v 10.645702 1.034365 13.444469
v 10.645702 11.637897 13.444469
vt 0.375000 0.000000
vt 0.625000 0.000000
vt 0.625000 0.250000
vt 0.375000 0.250000
vt 0.625000 0.500000
vt 0.375000 0.500000
vt 0.625000 0.750000
vt 0.375000 0.750000
vt 0.625000 1.000000
vt 0.375000 1.000000
vt 0.125000 0.500000
vt 0.125000 0.750000
vt 0.875000 0.500000
vt 0.875000 0.750000
vn -1.0000 0.0000 0.0000
vn 0.0000 0.0000 -1.0000
vn 1.0000 0.0000 0.0000
vn 0.0000 0.0000 1.0000
vn 0.0000 -1.0000 0.0000
vn 0.0000 1.0000 0.0000
usemtl None
s off
f 9/15/7 10/16/7 12/17/7 11/18/7
f 11/18/8 12/17/8 16/19/8 15/20/8
f 15/20/9 16/19/9 14/21/9 13/22/9
f 13/22/10 14/21/10 10/23/10 9/24/10
f 11/25/11 15/20/11 13/22/11 9/26/11
f 16/19/12 12/27/12 10/28/12 14/21/12
o Cube.002_Cube.003
v -5.351654 -0.350918 -14.186404
v -5.351654 13.023180 -14.186404
v -4.464703 -0.350918 -17.078705
v -4.464703 13.023180 -17.078705
v 14.126957 -0.350918 -8.213101
v 14.126957 13.023180 -8.213101
v 15.013908 -0.350918 -11.105403
v 15.013908 13.023180 -11.105403
vt 0.375000 0.000000
vt 0.625000 0.000000
vt 0.625000 0.250000
vt 0.375000 0.250000
vt 0.625000 0.500000
vt 0.375000 0.500000
vt 0.625000 0.750000
vt 0.375000 0.750000
vt 0.625000 1.000000
vt 0.375000 1.000000
vt 0.125000 0.500000
vt 0.125000 0.750000
vt 0.875000 0.500000
vt 0.875000 0.750000
vn -0.9561 0.0000 -0.2932
vn 0.2932 0.0000 -0.9561
vn 0.9561 0.0000 0.2932
vn -0.2932 0.0000 0.9561
vn 0.0000 -1.0000 0.0000
vn 0.0000 1.0000 0.0000
usemtl None
s off
f 17/29/13 18/30/13 20/31/13 19/32/13
f 19/32/14 20/31/14 24/33/14 23/34/14
f 23/34/15 24/33/15 22/35/15 21/36/15
f 21/36/16 22/35/16 18/37/16 17/38/16
f 19/39/17 23/34/17 21/36/17 17/40/17
f 24/33/18 20/41/18 18/42/18 22/35/18
o Cube.003_Cube.004
v 14.613729 2.069921 -4.382345
v 14.613729 23.374859 -4.382345
v 14.613729 2.069921 -6.343084
v 14.613729 23.374859 -6.343084
v 16.269613 2.069921 -4.382345
v 16.269613 23.374859 -4.382345
v 16.269613 2.069921 -6.343084
v 16.269613 23.374859 -6.343084
vt 0.375000 0.000000
vt 0.625000 0.000000
vt 0.625000 0.250000
vt 0.375000 0.250000
vt 0.625000 0.500000
vt 0.375000 0.500000
vt 0.625000 0.750000
vt 0.375000 0.750000
vt 0.625000 1.000000
vt 0.375000 1.000000
vt 0.125000 0.500000
vt 0.125000 0.750000
vt 0.875000 0.500000
vt 0.875000 0.750000
vn -1.0000 0.0000 0.0000
vn 0.0000 0.0000 -1.0000
vn 1.0000 0.0000 0.0000
vn 0.0000 0.0000 1.0000
vn 0.0000 -1.0000 0.0000
vn 0.0000 1.0000 0.0000
usemtl None
s off
f 25/43/19 26/44/19 28/45/19 27/46/19
f 27/46/20 28/45/20 32/47/20 31/48/20
f 31/48/21 32/47/21 30/49/21 29/50/21
f 29/50/22 30/49/22 26/51/22 25/52/22
f 27/53/23 31/48/23 29/50/23 25/54/23
f 32/47/24 28/55/24 26/56/24 30/49/24
o Cube.004_Cube.005
v 14.613729 2.069921 0.104060
v 14.613729 23.374859 0.104060
v 14.613729 2.069921 -1.856679
v 14.613729 23.374859 -1.856679
v 16.269613 2.069921 0.104060
v 16.269613 23.374859 0.104060
v 16.269613 2.069921 -1.856679
v 16.269613 23.374859 -1.856679
vt 0.375000 0.000000
vt 0.625000 0.000000
vt 0.625000 0.250000
vt 0.375000 0.250000
vt 0.625000 0.500000
vt 0.375000 0.500000
vt 0.625000 0.750000
vt 0.375000 0.750000
vt 0.625000 1.000000
vt 0.375000 1.000000
vt 0.125000 0.500000
vt 0.125000 0.750000
vt 0.875000 0.500000
vt 0.875000 0.750000
vn -1.0000 0.0000 0.0000
vn 0.0000 0.0000 -1.0000
vn 1.0000 0.0000 0.0000
vn 0.0000 0.0000 1.0000
vn 0.0000 -1.0000 0.0000
vn 0.0000 1.0000 0.0000
usemtl None
s off
f 33/57/25 34/58/25 36/59/25 35/60/25
f 35/60/26 36/59/26 40/61/26 39/62/26
f 39/62/27 40/61/27 38/63/27 37/64/27
f 37/64/28 38/63/28 34/65/28 33/66/28
f 35/67/29 39/62/29 37/64/29 33/68/29
f 40/61/30 36/69/30 34/70/30 38/63/30
o Cube.005_Cube.006
v 14.613729 1.620525 3.528201
v 14.613729 22.149584 9.225412
v 14.613729 2.144852 1.638867
v 14.613729 22.673910 7.336079
v 16.269613 1.620525 3.528201
v 16.269613 22.149584 9.225412
v 16.269613 2.144852 1.638867
v 16.269613 22.673910 7.336079
vt 0.375000 0.000000
vt 0.625000 0.000000
vt 0.625000 0.250000
vt 0.375000 0.250000
vt 0.625000 0.500000
vt 0.375000 0.500000
vt 0.625000 0.750000
vt 0.375000 0.750000
vt 0.625000 1.000000
vt 0.375000 1.000000
vt 0.125000 0.500000
vt 0.125000 0.750000
vt 0.875000 0.500000
vt 0.875000 0.750000
vn -1.0000 0.0000 0.0000
vn 0.0000 0.2674 -0.9636
vn 1.0000 0.0000 0.0000
vn 0.0000 -0.2674 0.9636
vn 0.0000 -0.9636 -0.2674
vn 0.0000 0.9636 0.2674
usemtl None
s off
f 41/71/31 42/72/31 44/73/31 43/74/31
f 43/74/32 44/73/32 48/75/32 47/76/32
f 47/76/33 48/75/33 46/77/33 45/78/33
f 45/78/34 46/77/34 42/79/34 41/80/34
f 43/81/35 47/76/35 45/78/35 41/82/35
f 48/75/36 44/83/36 42/84/36 46/77/36
o Cone.001
v -8.597502 0.485615 -10.131935
v -8.059573 0.485615 -10.078159
v -7.542316 0.485615 -9.918900
v -7.065610 0.485615 -9.660275
v -6.647774 0.485615 -9.312225
v -6.304864 0.485615 -8.888124
v -6.050059 0.485615 -8.404272
v -5.893151 0.485615 -7.879262
v -5.840170 0.485615 -7.333270
v -5.893151 0.485615 -6.787277
v -6.050059 0.485615 -6.262267
v -6.304864 0.485615 -5.778415
v -6.647774 0.485615 -5.354314
v -7.065610 0.485615 -5.006264
v -7.542317 0.485615 -4.747640
v -8.059574 0.485615 -4.588380
v -8.597503 0.485615 -4.534604
v -9.135431 0.485615 -4.588380
v -9.652688 0.485615 -4.747641
v -10.129395 0.485615 -5.006265
v -10.547231 0.485615 -5.354315
v -10.890141 0.485615 -5.778416
v -11.144945 0.485615 -6.262269
v -8.597502 3.540009 -7.333270
v -11.301853 0.485615 -6.787280
v -11.354834 0.485615 -7.333272
v -11.301851 0.485615 -7.879265
v -11.144943 0.485615 -8.404276
v -10.890138 0.485615 -8.888127
v -10.547227 0.485615 -9.312227
v -10.129390 0.485615 -9.660277
v -9.652683 0.485615 -9.918901
v -9.135427 0.485615 -10.078160
vt 0.250000 0.490000
vt 0.250000 0.250000
vt 0.296822 0.485388
vt 0.341844 0.471731
vt 0.383337 0.449553
vt 0.419706 0.419706
vt 0.449553 0.383337
vt 0.471731 0.341844
vt 0.485388 0.296822
vt 0.490000 0.250000
vt 0.485388 0.203178
vt 0.471731 0.158156
vt 0.449553 0.116663
vt 0.419706 0.080294
vt 0.383337 0.050447
vt 0.341844 0.028269
vt 0.296822 0.014612
vt 0.250000 0.010000
vt 0.203178 0.014612
vt 0.158156 0.028269
vt 0.116663 0.050447
vt 0.080294 0.080294
vt 0.050447 0.116663
vt 0.028269 0.158156
vt 0.014611 0.203179
vt 0.010000 0.250000
vt 0.014612 0.296822
vt 0.028269 0.341844
vt 0.050447 0.383337
vt 0.080295 0.419706
vt 0.116663 0.449553
vt 0.158156 0.471731
vt 0.203179 0.485389
vt 0.750000 0.490000
vt 0.796822 0.485388
vt 0.841844 0.471731
vt 0.883337 0.449553
vt 0.919706 0.419706
vt 0.949553 0.383337
vt 0.971731 0.341844
vt 0.985388 0.296822
vt 0.990000 0.250000
vt 0.985388 0.203178
vt 0.971731 0.158156
vt 0.949553 0.116663
vt 0.919706 0.080294
vt 0.883337 0.050447
vt 0.841844 0.028269
vt 0.796822 0.014612
vt 0.750000 0.010000
vt 0.703178 0.014612
vt 0.658156 0.028269
vt 0.616663 0.050447
vt 0.580294 0.080294
vt 0.550447 0.116663
vt 0.528269 0.158156
vt 0.514611 0.203179
vt 0.510000 0.250000
vt 0.514612 0.296822
vt 0.528269 0.341844
vt 0.550447 0.383337
vt 0.580295 0.419706
vt 0.616663 0.449553
vt 0.658156 0.471731
vt 0.703179 0.485389
vn 0.0735 0.6737 -0.7353
vn 0.2176 0.6733 -0.7066
vn 0.3529 0.6726 -0.6505
vn 0.4742 0.6716 -0.5693
vn 0.5769 0.6705 -0.4665
vn 0.6572 0.6695 -0.3461
vn 0.7123 0.6688 -0.2129
vn 0.7404 0.6684 -0.0718
vn 0.7404 0.6684 0.0718
vn 0.7123 0.6688 0.2129
vn 0.6572 0.6695 0.3461
vn 0.5769 0.6705 0.4665
vn 0.4742 0.6716 0.5693
vn 0.3529 0.6726 0.6505
vn 0.2176 0.6733 0.7066
vn 0.0735 0.6737 0.7353
vn -0.0735 0.6737 0.7353
vn -0.2176 0.6733 0.7066
vn -0.3529 0.6726 0.6505
vn -0.4742 0.6716 0.5693
vn -0.5769 0.6705 0.4665
vn -0.6572 0.6695 0.3461
vn -0.7123 0.6688 0.2129
vn -0.7404 0.6684 0.0718
vn -0.7404 0.6684 -0.0718
vn -0.7123 0.6688 -0.2129
vn -0.6572 0.6695 -0.3461
vn -0.5769 0.6705 -0.4665
vn -0.4742 0.6716 -0.5693
vn -0.3529 0.6726 -0.6505
vn -0.2176 0.6733 -0.7066
vn -0.0735 0.6737 -0.7353
vn 0.0000 -1.0000 0.0000
usemtl None
s off
f 49/85/37 72/86/37 50/87/37
f 50/87/38 72/86/38 51/88/38
f 51/88/39 72/86/39 52/89/39
f 52/89/40 72/86/40 53/90/40
f 53/90/41 72/86/41 54/91/41
f 54/91/42 72/86/42 55/92/42
f 55/92/43 72/86/43 56/93/43
f 56/93/44 72/86/44 57/94/44
f 57/94/45 72/86/45 58/95/45
f 58/95/46 72/86/46 59/96/46
f 59/96/47 72/86/47 60/97/47
f 60/97/48 72/86/48 61/98/48
f 61/98/49 72/86/49 62/99/49
f 62/99/50 72/86/50 63/100/50
f 63/100/51 72/86/51 64/101/51
f 64/101/52 72/86/52 65/102/52
f 65/102/53 72/86/53 66/103/53
f 66/103/54 72/86/54 67/104/54
f 67/104/55 72/86/55 68/105/55
f 68/105/56 72/86/56 69/106/56
f 69/106/57 72/86/57 70/107/57
f 70/107/58 72/86/58 71/108/58
f 71/108/59 72/86/59 73/109/59
f 73/109/60 72/86/60 74/110/60
f 74/110/61 72/86/61 75/111/61
f 75/111/62 72/86/62 76/112/62
f 76/112/63 72/86/63 77/113/63
f 77/113/64 72/86/64 78/114/64
f 78/114/65 72/86/65 79/115/65
f 79/115/66 72/86/66 80/116/66
f 80/116/67 72/86/67 81/117/67
f 81/117/68 72/86/68 49/85/68
f 49/118/69 50/119/69 51/120/69 52/121/69 53/122/69 54/123/69 55/124/69 56/125/69 57/126/69 58/127/69 59/128/69 60/129/69 61/130/69 62/131/69 63/132/69 64/133/69 65/134/69 66/135/69 67/136/69 68/137/69 69/138/69 70/139/69 71/140/69 73/141/69 74/142/69 75/143/69 76/144/69 77/145/69 78/146/69 79/147/69 80/148/69 81/149/69
o Cone.002
v -8.597502 1.338516 -14.317488
v -8.059573 1.338516 -14.263712
v -7.542316 1.338516 -14.104451
v -7.065610 1.338516 -13.845827
v -6.647774 1.338516 -13.497777
v -6.304864 1.338516 -13.073677
v -6.050059 1.338516 -12.589825
v -5.893151 1.338516 -12.064815
v -5.840170 1.338516 -11.518822
v -5.893151 1.338516 -10.972830
v -6.050059 1.338516 -10.447819
v -6.304864 1.338516 -9.963966
v -6.647774 1.338516 -9.539866
v -7.065610 1.338516 -9.191816
v -7.542317 1.338516 -8.933191
v -8.059574 1.338516 -8.773932
v -8.597503 1.338516 -8.720156
v -9.135431 1.338516 -8.773932
v -9.652688 1.338516 -8.933192
v -10.129395 1.338516 -9.191817
v -10.547231 1.338516 -9.539867
v -10.890141 1.338516 -9.963968
v -11.144945 1.338516 -10.447821
v -8.597502 4.392910 -11.518822
v -11.301853 1.338516 -10.972832
v -11.354834 1.338516 -11.518825
v -11.301851 1.338516 -12.064817
v -11.144943 1.338516 -12.589828
v -10.890138 1.338516 -13.073680
v -10.547227 1.338516 -13.497780
v -10.129390 1.338516 -13.845829
v -9.652683 1.338516 -14.104453
v -9.135427 1.338516 -14.263712
vt 0.250000 0.490000
vt 0.250000 0.250000
vt 0.296822 0.485388
vt 0.341844 0.471731
vt 0.383337 0.449553
vt 0.419706 0.419706
vt 0.449553 0.383337
vt 0.471731 0.341844
vt 0.485388 0.296822
vt 0.490000 0.250000
vt 0.485388 0.203178
vt 0.471731 0.158156
vt 0.449553 0.116663
vt 0.419706 0.080294
vt 0.383337 0.050447
vt 0.341844 0.028269
vt 0.296822 0.014612
vt 0.250000 0.010000
vt 0.203178 0.014612
vt 0.158156 0.028269
vt 0.116663 0.050447
vt 0.080294 0.080294
vt 0.050447 0.116663
vt 0.028269 0.158156
vt 0.014611 0.203179
vt 0.010000 0.250000
vt 0.014612 0.296822
vt 0.028269 0.341844
vt 0.050447 0.383337
vt 0.080295 0.419706
vt 0.116663 0.449553
vt 0.158156 0.471731
vt 0.203179 0.485389
vt 0.750000 0.490000
vt 0.796822 0.485388
vt 0.841844 0.471731
vt 0.883337 0.449553
vt 0.919706 0.419706
vt 0.949553 0.383337
vt 0.971731 0.341844
vt 0.985388 0.296822
vt 0.990000 0.250000
vt 0.985388 0.203178
vt 0.971731 0.158156
vt 0.949553 0.116663
vt 0.919706 0.080294
vt 0.883337 0.050447
vt 0.841844 0.028269
vt 0.796822 0.014612
vt 0.750000 0.010000
vt 0.703178 0.014612
vt 0.658156 0.028269
vt 0.616663 0.050447
vt 0.580294 0.080294
vt 0.550447 0.116663
vt 0.528269 0.158156
vt 0.514611 0.203179
vt 0.510000 0.250000
vt 0.514612 0.296822
vt 0.528269 0.341844
vt 0.550447 0.383337
vt 0.580295 0.419706
vt 0.616663 0.449553
vt 0.658156 0.471731
vt 0.703179 0.485389
vn 0.0735 0.6737 -0.7353
vn 0.2176 0.6733 -0.7066
vn 0.3529 0.6726 -0.6505
vn 0.4742 0.6716 -0.5693
vn 0.5769 0.6705 -0.4665
vn 0.6572 0.6695 -0.3461
vn 0.7123 0.6688 -0.2129
vn 0.7404 0.6684 -0.0718
vn 0.7404 0.6684 0.0718
vn 0.7123 0.6688 0.2129
vn 0.6572 0.6695 0.3461
vn 0.5769 0.6705 0.4665
vn 0.4742 0.6716 0.5693
vn 0.3529 0.6726 0.6505
vn 0.2176 0.6733 0.7066
vn 0.0735 0.6737 0.7353
vn -0.0735 0.6737 0.7353
vn -0.2176 0.6733 0.7066
vn -0.3529 0.6726 0.6505
vn -0.4742 0.6716 0.5693
vn -0.5769 0.6705 0.4665
vn -0.6572 0.6695 0.3461
vn -0.7123 0.6688 0.2129
vn -0.7404 0.6684 0.0718
vn -0.7404 0.6684 -0.0718
vn -0.7123 0.6688 -0.2129
vn -0.6572 0.6695 -0.3461
vn -0.5769 0.6705 -0.4665
vn -0.4742 0.6716 -0.5693
vn -0.3529 0.6726 -0.6505
vn -0.2176 0.6733 -0.7066
vn -0.0735 0.6737 -0.7353
vn 0.0000 -1.0000 0.0000
usemtl None
s off
f 82/150/70 105/151/70 83/152/70
f 83/152/71 105/151/71 84/153/71
f 84/153/72 105/151/72 85/154/72
f 85/154/73 105/151/73 86/155/73
f 86/155/74 105/151/74 87/156/74
f 87/156/75 105/151/75 88/157/75
f 88/157/76 105/151/76 89/158/76
f 89/158/77 105/151/77 90/159/77
f 90/159/78 105/151/78 91/160/78
f 91/160/79 105/151/79 92/161/79
f 92/161/80 105/151/80 93/162/80
f 93/162/81 105/151/81 94/163/81
f 94/163/82 105/151/82 95/164/82
f 95/164/83 105/151/83 96/165/83
f 96/165/84 105/151/84 97/166/84
f 97/166/85 105/151/85 98/167/85
f 98/167/86 105/151/86 99/168/86
f 99/168/87 105/151/87 100/169/87
f 100/169/88 105/151/88 101/170/88
f 101/170/89 105/151/89 102/171/89
f 102/171/90 105/151/90 103/172/90
f 103/172/91 105/151/91 104/173/91
f 104/173/92 105/151/92 106/174/92
f 106/174/93 105/151/93 107/175/93
f 107/175/94 105/151/94 108/176/94
f 108/176/95 105/151/95 109/177/95
f 109/177/96 105/151/96 110/178/96
f 110/178/97 105/151/97 111/179/97
f 111/179/98 105/151/98 112/180/98
f 112/180/99 105/151/99 113/181/99
f 113/181/100 105/151/100 114/182/100
f 114/182/101 105/151/101 82/150/101
f 82/183/102 83/184/102 84/185/102 85/186/102 86/187/102 87/188/102 88/189/102 89/190/102 90/191/102 91/192/102 92/193/102 93/194/102 94/195/102 95/196/102 96/197/102 97/198/102 98/199/102 99/200/102 100/201/102 101/202/102 102/203/102 103/204/102 104/205/102 106/206/102 107/207/102 108/208/102 109/209/102 110/210/102 111/211/102 112/212/102 113/213/102 114/214/102
