# Blender v2.83.5 OBJ File: 'world2.blend'
# www.blender.org
mtllib world2_1.mtl
o Cylinder
v 0.000000 1.906346 -0.890616
v -0.000000 5.850969 -0.533708
v 0.195090 1.902773 -0.871736
v 0.260343 5.846030 -0.507604
v 0.382683 1.892194 -0.815822
v 0.510681 5.831402 -0.430293
v 0.555570 1.875013 -0.725023
v 0.741393 5.807648 -0.304748
v 0.707107 1.851893 -0.602829
v 0.943615 5.775679 -0.135793
v 0.831470 1.823720 -0.453934
v 1.109574 5.736726 0.070080
v 0.923880 1.791578 -0.284061
v 1.232892 5.692284 0.304959
v 0.980785 1.756702 -0.099739
v 1.308831 5.644061 0.559817
v 1.000000 1.720432 0.091950
v 1.334473 5.593912 0.824860
v 0.980785 1.684162 0.283639
v 1.308831 5.543762 1.089904
v 0.923880 1.649286 0.467962
v 1.232892 5.495540 1.344762
v 0.831470 1.617144 0.637835
v 1.109574 5.451098 1.579641
v 0.707107 1.588971 0.786730
v 0.943615 5.412145 1.785513
v 0.555570 1.565850 0.908924
v 0.741393 5.380176 1.954469
v 0.382683 1.548670 0.999723
v 0.510680 5.356421 2.080014
v 0.195090 1.538091 1.055637
v 0.260342 5.341793 2.157324
v -0.000000 1.534518 1.074517
v -0.000000 5.336854 2.183429
v -0.195091 1.538091 1.055637
v -0.260343 5.341794 2.157324
v -0.382684 1.548670 0.999723
v -0.510681 5.356421 2.080014
v -0.555571 1.565851 0.908924
v -0.741394 5.380176 1.954468
v -0.707107 1.588971 0.786729
v -0.943615 5.412145 1.785513
v -0.831470 1.617144 0.637834
v -1.109574 5.451098 1.579640
v -0.923880 1.649286 0.467961
v -1.232893 5.495540 1.344761
v -0.980785 1.684162 0.283639
v -1.308832 5.543763 1.089903
v -1.000000 1.720432 0.091949
v -1.334473 5.593912 0.824859
v -0.980785 1.756702 -0.099740
v -1.308831 5.644062 0.559815
v -0.923879 1.791578 -0.284062
v -1.232892 5.692284 0.304957
v -0.831469 1.823720 -0.453935
v -1.109573 5.736726 0.070079
v -0.707106 1.851893 -0.602830
v -0.943614 5.775680 -0.135794
v -0.555569 1.875014 -0.725024
v -0.741392 5.807648 -0.304749
v -0.382682 1.892194 -0.815823
v -0.510679 5.831403 -0.430294
v -0.195089 1.902773 -0.871736
v -0.260341 5.846030 -0.507604
vt 1.000000 0.500000
vt 1.000000 1.000000
vt 0.968750 1.000000
vt 0.968750 0.500000
vt 0.937500 1.000000
vt 0.937500 0.500000
vt 0.906250 1.000000
vt 0.906250 0.500000
vt 0.875000 1.000000
vt 0.875000 0.500000
vt 0.843750 1.000000
vt 0.843750 0.500000
vt 0.812500 1.000000
vt 0.812500 0.500000
vt 0.781250 1.000000
vt 0.781250 0.500000
vt 0.750000 1.000000
vt 0.750000 0.500000
vt 0.718750 1.000000
vt 0.718750 0.500000
vt 0.687500 1.000000
vt 0.687500 0.500000
vt 0.656250 1.000000
vt 0.656250 0.500000
vt 0.625000 1.000000
vt 0.625000 0.500000
vt 0.593750 1.000000
vt 0.593750 0.500000
vt 0.562500 1.000000
vt 0.562500 0.500000
vt 0.531250 1.000000
vt 0.531250 0.500000
vt 0.500000 1.000000
vt 0.500000 0.500000
vt 0.468750 1.000000
vt 0.468750 0.500000
vt 0.437500 1.000000
vt 0.437500 0.500000
vt 0.406250 1.000000
vt 0.406250 0.500000
vt 0.375000 1.000000
vt 0.375000 0.500000
vt 0.343750 1.000000
vt 0.343750 0.500000
vt 0.312500 1.000000
vt 0.312500 0.500000
vt 0.281250 1.000000
vt 0.281250 0.500000
vt 0.250000 1.000000
vt 0.250000 0.500000
vt 0.218750 1.000000
vt 0.218750 0.500000
vt 0.187500 1.000000
vt 0.187500 0.500000
vt 0.156250 1.000000
vt 0.156250 0.500000
vt 0.125000 1.000000
vt 0.125000 0.500000
vt 0.093750 1.000000
vt 0.093750 0.500000
vt 0.062500 1.000000
vt 0.062500 0.500000
vt 0.296822 0.485388
vt 0.250000 0.490000
vt 0.203179 0.485389
vt 0.158156 0.471731
vt 0.116663 0.449553
vt 0.080295 0.419706
vt 0.050447 0.383337
vt 0.028269 0.341844
vt 0.014612 0.296822
vt 0.010000 0.250000
vt 0.014611 0.203179
vt 0.028269 0.158156
vt 0.050447 0.116663
vt 0.080294 0.080294
vt 0.116663 0.050447
vt 0.158156 0.028269
vt 0.203178 0.014612
vt 0.250000 0.010000
vt 0.296822 0.014612
vt 0.341844 0.028269
vt 0.383337 0.050447
vt 0.419706 0.080294
vt 0.449553 0.116663
vt 0.471731 0.158156
vt 0.485388 0.203178
vt 0.490000 0.250000
vt 0.485388 0.296822
vt 0.471731 0.341844
vt 0.449553 0.383337
vt 0.419706 0.419706
vt 0.383337 0.449553
vt 0.341844 0.471731
vt 0.031250 1.000000
vt 0.031250 0.500000
vt 0.000000 1.000000
vt 0.000000 0.500000
vt 0.750000 0.490000
vt 0.796822 0.485388
vt 0.841844 0.471731
vt 0.883337 0.449553
vt 0.919706 0.419706
vt 0.949553 0.383337
vt 0.971731 0.341844
vt 0.985388 0.296822
vt 0.990000 0.250000
vt 0.985388 0.203178
vt 0.971731 0.158156
vt 0.949553 0.116663
vt 0.919706 0.080294
vt 0.883337 0.050447
vt 0.841844 0.028269
vt 0.796822 0.014612
vt 0.750000 0.010000
vt 0.703178 0.014612
vt 0.658156 0.028269
vt 0.616663 0.050447
vt 0.580294 0.080294
vt 0.550447 0.116663
vt 0.528269 0.158156
vt 0.514611 0.203179
vt 0.510000 0.250000
vt 0.514612 0.296822
vt 0.528269 0.341844
vt 0.550447 0.383337
vt 0.580295 0.419706
vt 0.616663 0.449553
vt 0.658156 0.471731
vt 0.703179 0.485389
vn 0.0996 0.0898 -0.9910
vn 0.2944 0.0833 -0.9520
vn 0.4768 0.0707 -0.8762
vn 0.6394 0.0523 -0.7671
vn 0.7762 0.0287 -0.6298
vn 0.8825 0.0007 -0.4703
vn 0.9551 -0.0309 -0.2947
vn 0.9918 -0.0650 -0.1097
vn 0.9918 -0.1006 0.0784
vn 0.9551 -0.1364 0.2631
vn 0.8825 -0.1712 0.4380
vn 0.7762 -0.2034 0.5967
vn 0.6394 -0.2316 0.7331
vn 0.4768 -0.2543 0.8414
vn 0.2944 -0.2703 0.9167
vn 0.0996 -0.2785 0.9553
vn -0.0996 -0.2785 0.9553
vn -0.2944 -0.2703 0.9167
vn -0.4768 -0.2543 0.8414
vn -0.6394 -0.2316 0.7331
vn -0.7762 -0.2034 0.5967
vn -0.8825 -0.1712 0.4380
vn -0.9551 -0.1364 0.2631
vn -0.9918 -0.1006 0.0784
vn -0.9918 -0.0650 -0.1097
vn -0.9551 -0.0309 -0.2947
vn -0.8825 0.0007 -0.4703
vn -0.7762 0.0287 -0.6298
vn -0.6394 0.0523 -0.7671
vn -0.4768 0.0707 -0.8762
vn -0.0000 0.9826 0.1859
vn -0.2944 0.0833 -0.9520
vn -0.0996 0.0898 -0.9910
vn 0.0000 -0.9826 -0.1859
usemtl None
s off
f 1/1/1 2/2/1 4/3/1 3/4/1
f 3/4/2 4/3/2 6/5/2 5/6/2
f 5/6/3 6/5/3 8/7/3 7/8/3
f 7/8/4 8/7/4 10/9/4 9/10/4
f 9/10/5 10/9/5 12/11/5 11/12/5
f 11/12/6 12/11/6 14/13/6 13/14/6
f 13/14/7 14/13/7 16/15/7 15/16/7
f 15/16/8 16/15/8 18/17/8 17/18/8
f 17/18/9 18/17/9 20/19/9 19/20/9
f 19/20/10 20/19/10 22/21/10 21/22/10
f 21/22/11 22/21/11 24/23/11 23/24/11
f 23/24/12 24/23/12 26/25/12 25/26/12
f 25/26/13 26/25/13 28/27/13 27/28/13
f 27/28/14 28/27/14 30/29/14 29/30/14
f 29/30/15 30/29/15 32/31/15 31/32/15
f 31/32/16 32/31/16 34/33/16 33/34/16
f 33/34/17 34/33/17 36/35/17 35/36/17
f 35/36/18 36/35/18 38/37/18 37/38/18
f 37/38/19 38/37/19 40/39/19 39/40/19
f 39/40/20 40/39/20 42/41/20 41/42/20
f 41/42/21 42/41/21 44/43/21 43/44/21
f 43/44/22 44/43/22 46/45/22 45/46/22
f 45/46/23 46/45/23 48/47/23 47/48/23
f 47/48/24 48/47/24 50/49/24 49/50/24
f 49/50/25 50/49/25 52/51/25 51/52/25
f 51/52/26 52/51/26 54/53/26 53/54/26
f 53/54/27 54/53/27 56/55/27 55/56/27
f 55/56/28 56/55/28 58/57/28 57/58/28
f 57/58/29 58/57/29 60/59/29 59/60/29
f 59/60/30 60/59/30 62/61/30 61/62/30
f 4/63/31 2/64/31 64/65/31 62/66/31 60/67/31 58/68/31 56/69/31 54/70/31 52/71/31 50/72/31 48/73/31 46/74/31 44/75/31 42/76/31 40/77/31 38/78/31 36/79/31 34/80/31 32/81/31 30/82/31 28/83/31 26/84/31 24/85/31 22/86/31 20/87/31 18/88/31 16/89/31 14/90/31 12/91/31 10/92/31 8/93/31 6/94/31
f 61/62/32 62/61/32 64/95/32 63/96/32
f 63/96/33 64/95/33 2/97/33 1/98/33
f 1/99/34 3/100/34 5/101/34 7/102/34 9/103/34 11/104/34 13/105/34 15/106/34 17/107/34 19/108/34 21/109/34 23/110/34 25/111/34 27/112/34 29/113/34 31/114/34 33/115/34 35/116/34 37/117/34 39/118/34 41/119/34 43/120/34 45/121/34 47/122/34 49/123/34 51/124/34 53/125/34 55/126/34 57/127/34 59/128/34 61/129/34 63/130/34
o Cylinder.001_Cylinder.002
v 0.000000 5.894497 -0.671312
v 0.326004 5.889046 -0.642502
v 0.326004 6.578109 -0.512123
v 0.639480 5.872901 -0.557179
v 0.639480 6.561965 -0.426800
v 0.928381 5.846685 -0.418623
v 0.928381 6.535748 -0.288244
v 1.181605 5.811403 -0.232157
v 1.181605 6.500467 -0.101778
v 1.389420 5.768413 -0.004948
v 1.389420 6.457476 0.125431
v 1.543841 5.719365 0.254272
v 1.543841 6.408428 0.384652
v 1.638933 5.666145 0.535543
v 1.671041 5.610798 0.828055
v 1.638933 5.555451 1.120567
v 1.543841 5.502232 1.401838
v 1.543841 6.191295 1.532217
v 1.389420 5.453184 1.661059
v 1.389420 6.142247 1.791438
v 1.181605 5.410193 1.888268
v 1.181605 6.099257 2.018647
v 0.928381 5.374911 2.074733
v 0.928381 6.063975 2.205113
v 0.639480 5.348695 2.213290
v 0.639480 6.037758 2.343669
v 0.326004 5.332551 2.298613
v -0.000001 5.327100 2.327422
v -0.326005 5.332551 2.298612
v -0.639481 5.348695 2.213289
v -0.639481 6.037758 2.343669
v -0.928382 5.374912 2.074733
v -0.928382 6.063975 2.205112
v -1.181605 5.410193 1.888267
v -1.181606 6.099257 2.018646
v -1.389421 5.453184 1.661058
v -1.389421 6.142247 1.791437
v -1.543841 5.502232 1.401837
v -1.543842 6.191295 1.532216
v -1.638933 5.555452 1.120566
v -1.671041 5.610798 0.828054
v -1.638932 5.666145 0.535542
v -1.543840 5.719365 0.254271
v -1.543840 6.408429 0.384650
v -1.389419 5.768413 -0.004950
v -1.389419 6.457476 0.125429
v -1.181603 5.811404 -0.232159
v -1.181603 6.500467 -0.101779
v -0.928379 5.846685 -0.418624
v -0.928379 6.535748 -0.288245
v -0.639478 5.872902 -0.557180
v -0.326001 5.889046 -0.642502
vt 0.968750 0.500000
vt 0.968750 1.000000
vt 0.937500 1.000000
vt 0.937500 0.500000
vt 0.906250 1.000000
vt 0.906250 0.500000
vt 0.875000 1.000000
vt 0.875000 0.500000
vt 0.843750 1.000000
vt 0.843750 0.500000
vt 0.812500 1.000000
vt 0.812500 0.500000
vt 0.687500 0.500000
vt 0.687500 1.000000
vt 0.656250 1.000000
vt 0.656250 0.500000
vt 0.625000 1.000000
vt 0.625000 0.500000
vt 0.593750 1.000000
vt 0.593750 0.500000
vt 0.562500 1.000000
vt 0.562500 0.500000
vt 0.437500 0.500000
vt 0.437500 1.000000
vt 0.406250 1.000000
vt 0.406250 0.500000
vt 0.375000 1.000000
vt 0.375000 0.500000
vt 0.343750 1.000000
vt 0.343750 0.500000
vt 0.312500 1.000000
vt 0.312500 0.500000
vt 0.187500 0.500000
vt 0.187500 1.000000
vt 0.156250 1.000000
vt 0.156250 0.500000
vt 0.125000 1.000000
vt 0.125000 0.500000
vt 0.093750 1.000000
vt 0.093750 0.500000
vt 0.750000 0.490000
vt 0.796822 0.485388
vt 0.841844 0.471731
vt 0.883337 0.449553
vt 0.919706 0.419706
vt 0.949553 0.383337
vt 0.971731 0.341844
vt 0.985388 0.296822
vt 0.990000 0.250000
vt 0.985388 0.203178
vt 0.971731 0.158156
vt 0.949553 0.116663
vt 0.919706 0.080294
vt 0.883337 0.050447
vt 0.841844 0.028269
vt 0.796822 0.014612
vt 0.750000 0.010000
vt 0.703178 0.014612
vt 0.658156 0.028269
vt 0.616663 0.050447
vt 0.580294 0.080294
vt 0.550447 0.116663
vt 0.528269 0.158156
vt 0.514611 0.203179
vt 0.510000 0.250000
vt 0.514612 0.296822
vt 0.528269 0.341844
vt 0.550447 0.383337
vt 0.580295 0.419706
vt 0.616663 0.449553
vt 0.658156 0.471731
vt 0.703179 0.485389
vn 0.2670 0.1792 -0.9469
vn 0.4386 0.1671 -0.8830
vn 0.5997 0.1488 -0.7863
vn 0.7438 0.1243 -0.6568
vn 0.8630 0.0939 -0.4963
vn 0.8630 -0.0939 0.4963
vn 0.7438 -0.1243 0.6568
vn 0.5997 -0.1488 0.7863
vn 0.4386 -0.1671 0.8830
vn -0.4386 -0.1671 0.8830
vn -0.5997 -0.1488 0.7863
vn -0.7438 -0.1243 0.6568
vn -0.8630 -0.0939 0.4963
vn -0.8630 0.0939 -0.4963
vn -0.7438 0.1243 -0.6568
vn -0.5997 0.1488 -0.7863
vn -0.0000 -0.9826 -0.1859
usemtl None
s off
f 66/131/35 67/132/35 69/133/35 68/134/35
f 68/134/36 69/133/36 71/135/36 70/136/36
f 70/136/37 71/135/37 73/137/37 72/138/37
f 72/138/38 73/137/38 75/139/38 74/140/38
f 74/140/39 75/139/39 77/141/39 76/142/39
f 81/143/40 82/144/40 84/145/40 83/146/40
f 83/146/41 84/145/41 86/147/41 85/148/41
f 85/148/42 86/147/42 88/149/42 87/150/42
f 87/150/43 88/149/43 90/151/43 89/152/43
f 94/153/44 95/154/44 97/155/44 96/156/44
f 96/156/45 97/155/45 99/157/45 98/158/45
f 98/158/46 99/157/46 101/159/46 100/160/46
f 100/160/47 101/159/47 103/161/47 102/162/47
f 107/163/48 108/164/48 110/165/48 109/166/48
f 109/166/49 110/165/49 112/167/49 111/168/49
f 111/168/50 112/167/50 114/169/50 113/170/50
f 65/171/51 66/172/51 68/173/51 70/174/51 72/175/51 74/176/51 76/177/51 78/178/51 79/179/51 80/180/51 81/181/51 83/182/51 85/183/51 87/184/51 89/185/51 91/186/51 92/187/51 93/188/51 94/189/51 96/190/51 98/191/51 100/192/51 102/193/51 104/194/51 105/195/51 106/196/51 107/197/51 109/198/51 111/199/51 113/200/51 115/201/51 116/202/51
