# Blender v2.83.5 OBJ File: 'world4.blend'
# www.blender.org
mtllib world4_1.mtl
o Cone
v 0.000000 0.922383 5.117617
v 0.254452 0.922383 5.142953
v 0.499126 0.922383 5.217988
v 0.724618 0.922383 5.339837
v 0.922264 0.922383 5.503819
v 1.084467 0.922383 5.703630
v 1.204996 0.922383 5.931595
v 1.279216 0.922383 6.178950
v 1.304278 0.922383 6.436191
v 1.279217 0.922383 6.693432
v 1.204996 0.922383 6.940787
v 1.084467 0.922383 7.168752
v 0.922264 0.922383 7.368564
v 0.724618 0.922383 7.532546
v 0.499125 0.922383 7.654395
v 0.254452 0.922383 7.729429
v -0.000000 0.922383 7.754766
v -0.254452 0.922383 7.729429
v -0.499126 0.922383 7.654395
v -0.724619 0.922383 7.532545
v -0.922264 0.922383 7.368563
v -1.084468 0.922383 7.168751
v -1.204996 0.922383 6.940786
v 0.000000 2.922383 6.436191
v -1.279217 0.922383 6.693431
v -1.304278 0.922383 6.436190
v -1.279216 0.922383 6.178949
v -1.204995 0.922383 5.931593
v -1.084466 0.922383 5.703629
v -0.922262 0.922383 5.503817
v -0.724616 0.922383 5.339836
v -0.499124 0.922383 5.217987
v -0.254450 0.922383 5.142952
vt 0.250000 0.490000
vt 0.250000 0.250000
vt 0.296822 0.485388
vt 0.341844 0.471731
vt 0.383337 0.449553
vt 0.419706 0.419706
vt 0.449553 0.383337
vt 0.471731 0.341844
vt 0.485388 0.296822
vt 0.490000 0.250000
vt 0.485388 0.203178
vt 0.471731 0.158156
vt 0.449553 0.116663
vt 0.419706 0.080294
vt 0.383337 0.050447
vt 0.341844 0.028269
vt 0.296822 0.014612
vt 0.250000 0.010000
vt 0.203178 0.014612
vt 0.158156 0.028269
vt 0.116663 0.050447
vt 0.080294 0.080294
vt 0.050447 0.116663
vt 0.028269 0.158156
vt 0.014611 0.203179
vt 0.010000 0.250000
vt 0.014612 0.296822
vt 0.028269 0.341844
vt 0.050447 0.383337
vt 0.080295 0.419706
vt 0.116663 0.449553
vt 0.158156 0.471731
vt 0.203179 0.485389
vt 0.750000 0.490000
vt 0.796822 0.485388
vt 0.841844 0.471731
vt 0.883337 0.449553
vt 0.919706 0.419706
vt 0.949553 0.383337
vt 0.971731 0.341844
vt 0.985388 0.296822
vt 0.990000 0.250000
vt 0.985388 0.203178
vt 0.971731 0.158156
vt 0.949553 0.116663
vt 0.919706 0.080294
vt 0.883337 0.050447
vt 0.841844 0.028269
vt 0.796822 0.014612
vt 0.750000 0.010000
vt 0.703178 0.014612
vt 0.658156 0.028269
vt 0.616663 0.050447
vt 0.580294 0.080294
vt 0.550447 0.116663
vt 0.528269 0.158156
vt 0.514611 0.203179
vt 0.510000 0.250000
vt 0.514612 0.296822
vt 0.528269 0.341844
vt 0.550447 0.383337
vt 0.580295 0.419706
vt 0.616663 0.449553
vt 0.658156 0.471731
vt 0.703179 0.485389
vn 0.0828 0.5485 -0.8320
vn 0.2452 0.5482 -0.7996
vn 0.3978 0.5476 -0.7361
vn 0.5346 0.5469 -0.6443
vn 0.6504 0.5461 -0.5280
vn 0.7410 0.5453 -0.3918
vn 0.8032 0.5447 -0.2410
vn 0.8348 0.5444 -0.0813
vn 0.8348 0.5444 0.0813
vn 0.8032 0.5447 0.2410
vn 0.7410 0.5453 0.3918
vn 0.6504 0.5461 0.5280
vn 0.5346 0.5469 0.6443
vn 0.3978 0.5476 0.7361
vn 0.2452 0.5482 0.7996
vn 0.0828 0.5485 0.8320
vn -0.0828 0.5485 0.8320
vn -0.2452 0.5482 0.7996
vn -0.3978 0.5476 0.7361
vn -0.5346 0.5469 0.6443
vn -0.6504 0.5461 0.5280
vn -0.7410 0.5453 0.3918
vn -0.8032 0.5447 0.2410
vn -0.8348 0.5444 0.0813
vn -0.8348 0.5444 -0.0813
vn -0.8032 0.5447 -0.2410
vn -0.7410 0.5453 -0.3918
vn -0.6504 0.5461 -0.5280
vn -0.5346 0.5469 -0.6443
vn -0.3978 0.5476 -0.7361
vn -0.2452 0.5482 -0.7996
vn -0.0828 0.5485 -0.8320
vn 0.0000 -1.0000 -0.0000
usemtl None
s off
f 1/1/1 24/2/1 2/3/1
f 2/3/2 24/2/2 3/4/2
f 3/4/3 24/2/3 4/5/3
f 4/5/4 24/2/4 5/6/4
f 5/6/5 24/2/5 6/7/5
f 6/7/6 24/2/6 7/8/6
f 7/8/7 24/2/7 8/9/7
f 8/9/8 24/2/8 9/10/8
f 9/10/9 24/2/9 10/11/9
f 10/11/10 24/2/10 11/12/10
f 11/12/11 24/2/11 12/13/11
f 12/13/12 24/2/12 13/14/12
f 13/14/13 24/2/13 14/15/13
f 14/15/14 24/2/14 15/16/14
f 15/16/15 24/2/15 16/17/15
f 16/17/16 24/2/16 17/18/16
f 17/18/17 24/2/17 18/19/17
f 18/19/18 24/2/18 19/20/18
f 19/20/19 24/2/19 20/21/19
f 20/21/20 24/2/20 21/22/20
f 21/22/21 24/2/21 22/23/21
f 22/23/22 24/2/22 23/24/22
f 23/24/23 24/2/23 25/25/23
f 25/25/24 24/2/24 26/26/24
f 26/26/25 24/2/25 27/27/25
f 27/27/26 24/2/26 28/28/26
f 28/28/27 24/2/27 29/29/27
f 29/29/28 24/2/28 30/30/28
f 30/30/29 24/2/29 31/31/29
f 31/31/30 24/2/30 32/32/30
f 32/32/31 24/2/31 33/33/31
f 33/33/32 24/2/32 1/1/32
f 1/34/33 2/35/33 3/36/33 4/37/33 5/38/33 6/39/33 7/40/33 8/41/33 9/42/33 10/43/33 11/44/33 12/45/33 13/46/33 14/47/33 15/48/33 16/49/33 17/50/33 18/51/33 19/52/33 20/53/33 21/54/33 22/55/33 23/56/33 25/57/33 26/58/33 27/59/33 28/60/33 29/61/33 30/62/33 31/63/33 32/64/33 33/65/33
o Cone.001
v 0.000000 2.223354 5.561680
v 0.194035 2.223354 5.578484
v 0.380613 2.223354 5.628248
v 0.552565 2.223354 5.709062
v 0.703281 2.223354 5.817818
v 0.826972 2.223354 5.950339
v 0.918881 2.223354 6.101530
v 0.975479 2.223354 6.265583
v 0.994590 2.223354 6.436191
v 0.975479 2.223354 6.606800
v 0.918882 2.223354 6.770852
v 0.826972 2.223354 6.922043
v 0.703281 2.223354 7.054564
v 0.552565 2.223354 7.163321
v 0.380613 2.223354 7.244134
v 0.194035 2.223354 7.293899
v -0.000000 2.223354 7.310702
v -0.194035 2.223354 7.293899
v -0.380614 2.223354 7.244134
v -0.552565 2.223354 7.163321
v -0.703282 2.223354 7.054564
v -0.826972 2.223354 6.922043
v -0.918882 2.223354 6.770851
v 0.000000 3.748474 6.436191
v -0.975480 2.223354 6.606799
v -0.994590 2.223354 6.436190
v -0.975479 2.223354 6.265582
v -0.918881 2.223354 6.101529
v -0.826971 2.223354 5.950338
v -0.703281 2.223354 5.817818
v -0.552564 2.223354 5.709061
v -0.380612 2.223354 5.628248
v -0.194033 2.223354 5.578483
vt 0.250000 0.490000
vt 0.250000 0.250000
vt 0.296822 0.485388
vt 0.341844 0.471731
vt 0.383337 0.449553
vt 0.419706 0.419706
vt 0.449553 0.383337
vt 0.471731 0.341844
vt 0.485388 0.296822
vt 0.490000 0.250000
vt 0.485388 0.203178
vt 0.471731 0.158156
vt 0.449553 0.116663
vt 0.419706 0.080294
vt 0.383337 0.050447
vt 0.341844 0.028269
vt 0.296822 0.014612
vt 0.250000 0.010000
vt 0.203178 0.014612
vt 0.158156 0.028269
vt 0.116663 0.050447
vt 0.080294 0.080294
vt 0.050447 0.116663
vt 0.028269 0.158156
vt 0.014611 0.203179
vt 0.010000 0.250000
vt 0.014612 0.296822
vt 0.028269 0.341844
vt 0.050447 0.383337
vt 0.080295 0.419706
vt 0.116663 0.449553
vt 0.158156 0.471731
vt 0.203179 0.485389
vt 0.750000 0.490000
vt 0.796822 0.485388
vt 0.841844 0.471731
vt 0.883337 0.449553
vt 0.919706 0.419706
vt 0.949553 0.383337
vt 0.971731 0.341844
vt 0.985388 0.296822
vt 0.990000 0.250000
vt 0.985388 0.203178
vt 0.971731 0.158156
vt 0.949553 0.116663
vt 0.919706 0.080294
vt 0.883337 0.050447
vt 0.841844 0.028269
vt 0.796822 0.014612
vt 0.750000 0.010000
vt 0.703178 0.014612
vt 0.658156 0.028269
vt 0.616663 0.050447
vt 0.580294 0.080294
vt 0.550447 0.116663
vt 0.528269 0.158156
vt 0.514611 0.203179
vt 0.510000 0.250000
vt 0.514612 0.296822
vt 0.528269 0.341844
vt 0.550447 0.383337
vt 0.580295 0.419706
vt 0.616663 0.449553
vt 0.658156 0.471731
vt 0.703179 0.485389
vn 0.0749 0.4960 -0.8651
vn 0.2233 0.4992 -0.8372
vn 0.3670 0.5053 -0.7810
vn 0.5021 0.5136 -0.6958
vn 0.6231 0.5231 -0.5815
vn 0.7234 0.5323 -0.4397
vn 0.7958 0.5397 -0.2746
vn 0.8340 0.5439 -0.0934
vn 0.8340 0.5439 0.0934
vn 0.7958 0.5397 0.2746
vn 0.7234 0.5323 0.4397
vn 0.6231 0.5231 0.5815
vn 0.5021 0.5136 0.6958
vn 0.3670 0.5053 0.7810
vn 0.2233 0.4992 0.8372
vn 0.0749 0.4960 0.8651
vn -0.0749 0.4960 0.8651
vn -0.2233 0.4992 0.8372
vn -0.3670 0.5053 0.7810
vn -0.5021 0.5136 0.6958
vn -0.6231 0.5231 0.5815
vn -0.7234 0.5323 0.4397
vn -0.7958 0.5397 0.2746
vn -0.8340 0.5439 0.0934
vn -0.8340 0.5439 -0.0934
vn -0.7958 0.5397 -0.2746
vn -0.7234 0.5323 -0.4397
vn -0.6230 0.5231 -0.5815
vn -0.5021 0.5136 -0.6958
vn -0.3670 0.5053 -0.7810
vn -0.2233 0.4992 -0.8372
vn -0.0749 0.4960 -0.8651
vn 0.0000 -1.0000 0.0000
usemtl None
s off
f 34/66/34 57/67/34 35/68/34
f 35/68/35 57/67/35 36/69/35
f 36/69/36 57/67/36 37/70/36
f 37/70/37 57/67/37 38/71/37
f 38/71/38 57/67/38 39/72/38
f 39/72/39 57/67/39 40/73/39
f 40/73/40 57/67/40 41/74/40
f 41/74/41 57/67/41 42/75/41
f 42/75/42 57/67/42 43/76/42
f 43/76/43 57/67/43 44/77/43
f 44/77/44 57/67/44 45/78/44
f 45/78/45 57/67/45 46/79/45
f 46/79/46 57/67/46 47/80/46
f 47/80/47 57/67/47 48/81/47
f 48/81/48 57/67/48 49/82/48
f 49/82/49 57/67/49 50/83/49
f 50/83/50 57/67/50 51/84/50
f 51/84/51 57/67/51 52/85/51
f 52/85/52 57/67/52 53/86/52
f 53/86/53 57/67/53 54/87/53
f 54/87/54 57/67/54 55/88/54
f 55/88/55 57/67/55 56/89/55
f 56/89/56 57/67/56 58/90/56
f 58/90/57 57/67/57 59/91/57
f 59/91/58 57/67/58 60/92/58
f 60/92/59 57/67/59 61/93/59
f 61/93/60 57/67/60 62/94/60
f 62/94/61 57/67/61 63/95/61
f 63/95/62 57/67/62 64/96/62
f 64/96/63 57/67/63 65/97/63
f 65/97/64 57/67/64 66/98/64
f 66/98/65 57/67/65 34/66/65
f 34/99/66 35/100/66 36/101/66 37/102/66 38/103/66 39/104/66 40/105/66 41/106/66 42/107/66 43/108/66 44/109/66 45/110/66 46/111/66 47/112/66 48/113/66 49/114/66 50/115/66 51/116/66 52/117/66 53/118/66 54/119/66 55/120/66 56/121/66 58/122/66 59/123/66 60/124/66 61/125/66 62/126/66 63/127/66 64/128/66 65/129/66 66/130/66
o Cone.002
v 0.000000 3.317078 5.835907
v 0.127062 3.317078 5.847441
v 0.249242 3.317078 5.881601
v 0.361843 3.317078 5.937073
v 0.460538 3.317078 6.011726
v 0.541536 3.317078 6.102691
v 0.601722 3.317078 6.206472
v 0.638785 3.317078 6.319081
v 0.651300 3.317078 6.436191
v 0.638785 3.317078 6.553301
v 0.601722 3.317078 6.665910
v 0.541536 3.317078 6.769691
v 0.460538 3.317078 6.860656
v 0.361843 3.317078 6.935309
v 0.249241 3.317078 6.990781
v 0.127062 3.317078 7.024941
v -0.000000 3.317078 7.036475
v -0.127062 3.317078 7.024941
v -0.249242 3.317078 6.990781
v -0.361843 3.317078 6.935309
v -0.460539 3.317078 6.860656
v -0.541536 3.317078 6.769691
v -0.601723 3.317078 6.665909
v 0.000000 4.315791 6.436191
v -0.638785 3.317078 6.553300
v -0.651300 3.317078 6.436191
v -0.638785 3.317078 6.319081
v -0.601722 3.317078 6.206471
v -0.541535 3.317078 6.102690
v -0.460538 3.317078 6.011725
v -0.361842 3.317078 5.937072
v -0.249241 3.317078 5.881600
v -0.127061 3.317078 5.847441
vt 0.250000 0.490000
vt 0.250000 0.250000
vt 0.296822 0.485388
vt 0.341844 0.471731
vt 0.383337 0.449553
vt 0.419706 0.419706
vt 0.449553 0.383337
vt 0.471731 0.341844
vt 0.485388 0.296822
vt 0.490000 0.250000
vt 0.485388 0.203178
vt 0.471731 0.158156
vt 0.449553 0.116663
vt 0.419706 0.080294
vt 0.383337 0.050447
vt 0.341844 0.028269
vt 0.296822 0.014612
vt 0.250000 0.010000
vt 0.203178 0.014612
vt 0.158156 0.028269
vt 0.116663 0.050447
vt 0.080294 0.080294
vt 0.050447 0.116663
vt 0.028269 0.158156
vt 0.014611 0.203179
vt 0.010000 0.250000
vt 0.014612 0.296822
vt 0.028269 0.341844
vt 0.050447 0.383337
vt 0.080295 0.419706
vt 0.116663 0.449553
vt 0.158156 0.471731
vt 0.203179 0.485389
vt 0.750000 0.490000
vt 0.796822 0.485388
vt 0.841844 0.471731
vt 0.883337 0.449553
vt 0.919706 0.419706
vt 0.949553 0.383337
vt 0.971731 0.341844
vt 0.985388 0.296822
vt 0.990000 0.250000
vt 0.985388 0.203178
vt 0.971731 0.158156
vt 0.949553 0.116663
vt 0.919706 0.080294
vt 0.883337 0.050447
vt 0.841844 0.028269
vt 0.796822 0.014612
vt 0.750000 0.010000
vt 0.703178 0.014612
vt 0.658156 0.028269
vt 0.616663 0.050447
vt 0.580294 0.080294
vt 0.550447 0.116663
vt 0.528269 0.158156
vt 0.514611 0.203179
vt 0.510000 0.250000
vt 0.514612 0.296822
vt 0.528269 0.341844
vt 0.550447 0.383337
vt 0.580295 0.419706
vt 0.616663 0.449553
vt 0.658156 0.471731
vt 0.703179 0.485389
vn 0.0776 0.5136 -0.8545
vn 0.2307 0.5158 -0.8251
vn 0.3775 0.5198 -0.7664
vn 0.5134 0.5252 -0.6787
vn 0.6327 0.5312 -0.5634
vn 0.7297 0.5370 -0.4232
vn 0.7985 0.5416 -0.2628
vn 0.8343 0.5441 -0.0891
vn 0.8343 0.5441 0.0891
vn 0.7985 0.5416 0.2628
vn 0.7297 0.5370 0.4232
vn 0.6327 0.5312 0.5634
vn 0.5134 0.5252 0.6787
vn 0.3775 0.5198 0.7664
vn 0.2307 0.5158 0.8251
vn 0.0776 0.5136 0.8545
vn -0.0776 0.5136 0.8545
vn -0.2307 0.5158 0.8251
vn -0.3775 0.5198 0.7664
vn -0.5134 0.5252 0.6787
vn -0.6327 0.5312 0.5634
vn -0.7297 0.5370 0.4232
vn -0.7985 0.5416 0.2628
vn -0.8343 0.5441 0.0892
vn -0.8343 0.5441 -0.0892
vn -0.7985 0.5416 -0.2628
vn -0.7297 0.5370 -0.4232
vn -0.6327 0.5312 -0.5634
vn -0.5134 0.5252 -0.6787
vn -0.3775 0.5198 -0.7664
vn -0.2307 0.5158 -0.8251
vn -0.0776 0.5136 -0.8545
vn 0.0000 -1.0000 0.0000
usemtl None
s off
f 67/131/67 90/132/67 68/133/67
f 68/133/68 90/132/68 69/134/68
f 69/134/69 90/132/69 70/135/69
f 70/135/70 90/132/70 71/136/70
f 71/136/71 90/132/71 72/137/71
f 72/137/72 90/132/72 73/138/72
f 73/138/73 90/132/73 74/139/73
f 74/139/74 90/132/74 75/140/74
f 75/140/75 90/132/75 76/141/75
f 76/141/76 90/132/76 77/142/76
f 77/142/77 90/132/77 78/143/77
f 78/143/78 90/132/78 79/144/78
f 79/144/79 90/132/79 80/145/79
f 80/145/80 90/132/80 81/146/80
f 81/146/81 90/132/81 82/147/81
f 82/147/82 90/132/82 83/148/82
f 83/148/83 90/132/83 84/149/83
f 84/149/84 90/132/84 85/150/84
f 85/150/85 90/132/85 86/151/85
f 86/151/86 90/132/86 87/152/86
f 87/152/87 90/132/87 88/153/87
f 88/153/88 90/132/88 89/154/88
f 89/154/89 90/132/89 91/155/89
f 91/155/90 90/132/90 92/156/90
f 92/156/91 90/132/91 93/157/91
f 93/157/92 90/132/92 94/158/92
f 94/158/93 90/132/93 95/159/93
f 95/159/94 90/132/94 96/160/94
f 96/160/95 90/132/95 97/161/95
f 97/161/96 90/132/96 98/162/96
f 98/162/97 90/132/97 99/163/97
f 99/163/98 90/132/98 67/131/98
f 67/164/99 68/165/99 69/166/99 70/167/99 71/168/99 72/169/99 73/170/99 74/171/99 75/172/99 76/173/99 77/174/99 78/175/99 79/176/99 80/177/99 81/178/99 82/179/99 83/180/99 84/181/99 85/182/99 86/183/99 87/184/99 88/185/99 89/186/99 91/187/99 92/188/99 93/189/99 94/190/99 95/191/99 96/192/99 97/193/99 98/194/99 99/195/99
